<svg xmlns="http://www.w3.org/2000/svg" width="934.98" height="571.14" viewBox="0 0 934.98 571.14" xmlns:xlink="http://www.w3.org/1999/xlink"><path d="m733.52,89.21s-20.58,2.32-21.91,34.19c-1.11,26.56-3.37,41.36,7.44,46.9,3.86,1.98,8.4,2.15,12.53.8l44.1-14.5s.66-47.8-14.61-59.42-27.55-7.97-27.55-7.97c0,0,0,0,0,0Z" fill="#36344e" stroke-width="0"/><polygon points="757.83 162.46 735.51 169.8 735.51 137.67 755.76 137.67 757.83 162.46" fill="#faafb2" stroke-width="0"/><path id="uuid-6c5d27ad-85a0-4a85-abc2-2261c54f1d8e-108" d="m689.6,344.84c-1.21,7.36-6.12,12.64-10.96,11.79-4.85-.85-7.79-7.51-6.58-14.87.44-2.95,1.61-5.74,3.4-8.13l5.53-31.12,15.05,3.15-7.05,30.34c.93,2.87,1.14,5.9.61,8.84,0,0,0,0,0,0h0Z" fill="#faafb2" stroke-width="0"/><polygon points="740.7 551.77 719.8 551.77 707.67 440.07 739.99 440.07 740.7 551.77" fill="#faafb2" stroke-width="0"/><path d="m699.44,569.72c-2.2,0-4.16-.05-5.63-.19-5.55-.51-10.85-4.61-13.51-7-1.19-1.07-1.58-2.79-.96-4.27h0c.45-1.06,1.34-1.85,2.45-2.17l14.67-4.19,23.76-16.03.27.48c.1.18,2.43,4.38,3.21,7.22.3,1.08.22,1.98-.23,2.68-.31.48-.75.76-1.1.92.43.45,1.78,1.36,5.93,2.02,6.07.96,7.33-5.32,7.39-5.58l.04-.21.18-.12c2.88-1.86,4.66-2.7,5.27-2.52.38.11,1.02.31,2.74,17.41.17.54,1.38,4.47.56,8.24-.89,4.1-18.78,2.69-22.36,2.36-.1.01-13.49.96-22.67.96Z" fill="#36344e" stroke-width="0"/><polygon points="787.93 551.77 767.02 551.77 754.9 440.07 787.21 440.07 787.93 551.77" fill="#faafb2" stroke-width="0"/><path d="m746.67,569.72c-2.2,0-4.16-.05-5.63-.19-5.55-.51-10.85-4.61-13.51-7-1.19-1.07-1.58-2.79-.96-4.27h0c.45-1.06,1.34-1.85,2.45-2.17l14.67-4.19,23.76-16.03.27.48c.1.18,2.43,4.38,3.21,7.22.3,1.08.22,1.98-.23,2.68-.31.48-.75.76-1.1.92.43.45,1.78,1.36,5.93,2.02,6.07.96,7.33-5.32,7.39-5.58l.04-.21.18-.12c2.89-1.86,4.66-2.7,5.27-2.52.38.11,1.02.31,2.74,17.41.17.54,1.38,4.47.56,8.24-.89,4.1-18.78,2.69-22.36,2.36-.1.01-13.49.96-22.67.96Z" fill="#36344e" stroke-width="0"/><polygon points="793.94 277.42 692.37 277.42 728.88 157.26 769.38 157.26 793.94 277.42" fill="#dfdfe0" stroke-width="0"/><path d="m735.27,157.27s-25.23-.66-27.88,5.98-33.86,164.65-33.86,164.65h20.58l41.16-170.62Z" fill="#dfdfe0" stroke-width="0"/><circle cx="738.27" cy="124.32" r="22.24" fill="#faafb2" stroke-width="0"/><path d="m732.19,97.51s-12.24,49.7,1.37,72.93l-19.17-4.07s-7.43-54.39,7.51-64.28l10.29-4.58Z" fill="#36344e" stroke-width="0"/><path d="m772.83,277.42h-66.66l-36.47,149.69c-.67,6.32,3.34,12.22,9.48,13.87,20.01,5.36,68.03,12.95,140.7-8.2,6.99-2.03,10.96-9.41,8.77-16.36l-55.82-139h0Z" fill="#36344e" stroke-width="0"/><path d="m745.88,157.26l20.73-.91c8.98.68,17.1,5.56,21.91,13.17,14.65,23.16,42.06,71.97,17.59,78.66-32.26,8.81-47.89-40.24-47.89-40.24l-12.34-50.68h0Z" fill="#dfdfe0" stroke-width="0"/><path id="uuid-f66f187a-dc1b-4c8e-900d-12a3fdbfcb59-109" d="m738.77,171.8c-4.26-6.12-4.41-13.33-.35-16.1,4.07-2.77,10.82-.04,15.08,6.08,1.74,2.42,2.84,5.24,3.22,8.2l17.71,26.18-12.99,8.23-16.08-26.68c-2.67-1.41-4.93-3.44-6.59-5.91,0,0,0,0,0,0h0Z" fill="#faafb2" stroke-width="0"/><polygon points="749.25 192.97 763.88 179.51 792.81 206.44 765.91 224.83 749.25 192.97" fill="#dfdfe0" stroke-width="0"/><rect y="126.63" width="524.08" height="64.82" rx="32.41" ry="32.41" fill="#6c63ff" stroke-width="0"/><path d="m268.88,290.4c-16.23,0-29.44-13.21-29.44-29.44s13.21-29.44,29.44-29.44,29.44,13.21,29.44,29.44-13.21,29.44-29.44,29.44Zm0-50.88c-11.82,0-21.44,9.62-21.44,21.44s9.62,21.44,21.44,21.44,21.44-9.62,21.44-21.44-9.62-21.44-21.44-21.44Z" fill="#484662" stroke-width="0"/><path d="m324.41,314.51c-.92,0-1.85-.32-2.6-.96l-37.21-31.91c-1.68-1.44-1.87-3.96-.43-5.64,1.44-1.68,3.96-1.87,5.64-.43l37.21,31.91c1.68,1.44,1.87,3.96.43,5.64-.79.92-1.91,1.4-3.04,1.4Z" fill="#484662" stroke-width="0"/><path d="m203.31,569.95c0,.66.53,1.19,1.19,1.19h729.29c.66,0,1.19-.53,1.19-1.19s-.53-1.19-1.19-1.19H204.5c-.66,0-1.19.53-1.19,1.19Z" fill="#484565" stroke-width="0"/><rect x="420.5" y="93.95" width="103.59" height="8.23" rx="4.12" ry="4.12" fill="#dfdfe0" stroke-width="0"/><rect y="0" width="103.59" height="8.23" rx="4.12" ry="4.12" fill="#dfdfe0" stroke-width="0"/><rect y="35.91" width="288.11" height="8.23" rx="4.12" ry="4.12" fill="#dfdfe0" stroke-width="0"/></svg>